<?xml version="1.0" encoding="utf-8"?>
<!-- Generator: Adobe Illustrator 23.0.0, SVG Export Plug-In . SVG Version: 6.00 Build 0)  -->
<svg version="1.1" xmlns="http://www.w3.org/2000/svg" xmlns:xlink="http://www.w3.org/1999/xlink" x="0px" y="0px"
	 viewBox="0 0 363.77 370.6" style="enable-background:new 0 0 363.77 370.6;" xml:space="preserve">
<style type="text/css">
	.st0{fill:#DFDFDF;}
	.st1{fill:#D6D6DA;}
	.st2{fill:#FFC65E;}
	.st3{fill:#FFDDE7;}
	.st4{fill:none;}
	.st5{fill:url(#SVGID_3_);}
	.st6{fill:#A7A7A7;}
	.st7{fill:#724989;}
	.st8{fill:#FF7AB8;}
	.st9{fill:url(#SVGID_4_);}
	.st10{fill:#894967;}
	.st11{fill:url(#SVGID_5_);}
	.st12{fill:url(#SVGID_6_);}
	.st13{fill:url(#SVGID_7_);}
	.st14{fill:url(#SVGID_8_);}
	.st15{fill:url(#SVGID_9_);}
	.st16{fill:url(#SVGID_10_);}
	.st17{fill:url(#SVGID_11_);}
	.st18{fill:url(#SVGID_12_);}
	.st19{fill:url(#SVGID_13_);}
	.st20{fill:url(#SVGID_14_);}
	.st21{clip-path:url(#SVGID_16_);}
	.st22{fill:url(#SVGID_17_);}
	.st23{fill:url(#SVGID_18_);}
	.st24{fill:url(#SVGID_19_);}
	.st25{fill:url(#SVGID_20_);}
	.st26{fill:url(#SVGID_21_);}
	.st27{fill:url(#SVGID_22_);}
	.st28{fill:url(#SVGID_23_);}
	.st29{fill:url(#SVGID_24_);}
	.st30{fill:url(#SVGID_25_);}
	.st31{fill:url(#SVGID_26_);}
	.st32{fill:url(#SVGID_27_);}
	.st33{fill:url(#SVGID_28_);}
	.st34{fill:#FEFEFD;}
	.st35{fill:#FFFFFF;}
</style>
<g id="Background">
</g>
<g id="Object">
</g>
<g id="Words">
	<g>
		<path class="st35" d="M182.47,22.82c0.13,2.97,0.3,5.12,0.31,7.27c0.02,15.05-0.3,30.12,0.16,45.16c0.2,6.36-2.16,7.98-7.97,7.68
			c-7-0.36-14.05-0.19-21.07,0.01c-13.03,0.37-21.83,9.29-21.78,22.16c0.07,15.12-2.04,13.11,13,13.13
			c50.78,0.08,101.57,0.03,152.35,0.03c9.28,0,9.29,0.03,9.29,9.41c0,53.99,0,107.99,0.01,161.98c0,7.82,0.02,7.82,8.05,7.83
			c6.82,0.01,13.65,0.12,20.47-0.03c3.62-0.08,5.11,1.48,5.1,4.97c-0.03,16.06-0.03,32.11-0.02,48.17c0,3.16-1.23,4.71-4.66,4.7
			c-45.16-0.08-90.32-0.07-135.49-0.11c-0.75,0-1.5-0.29-2.95-0.59c0-9.88,0-19.65,0-29.43c0-7.63,0.15-15.26-0.05-22.88
			c-0.1-3.71,1.32-4.94,4.92-4.85c7.02,0.18,14.05-0.08,21.07,0.09c3.71,0.09,5.48-0.99,5.47-5.09c-0.1-37.33-0.09-74.67-0.02-112
			c0.01-3.66-1.46-4.97-5.02-4.96c-28.9,0.06-57.81,0.07-86.71,0c-3.7-0.01-4.85,1.63-4.85,5.13c0.07,37.33,0.07,74.67,0,112
			c-0.01,3.68,1.46,4.98,5.02,4.91c7.42-0.14,14.86,0.1,22.28-0.09c3.82-0.09,5.38,1.22,5.35,5.18
			c-0.14,15.86-0.15,31.71,0.01,47.57c0.04,3.98-1.48,5.14-5.31,5.13c-44.16-0.09-88.32-0.11-132.48,0.01
			c-4.37,0.01-5.52-1.79-5.49-5.74c0.11-15.45,0.14-30.91-0.02-46.37c-0.05-4.47,1.66-6,6.06-5.83c7.01,0.27,14.05-0.05,21.07,0.12
			c3.74,0.09,5.46-1.05,5.45-5.11c-0.1-37.33-0.1-74.67-0.01-112c0.01-4.13-1.96-5.15-5.57-5.1c-6.82,0.1-13.65-0.06-20.47,0.02
			c-4.35,0.05-6.62-1.41-6.55-6.3c0.21-14.85,0.2-29.71,0-44.56c-0.07-4.86,2.09-6.34,6.54-6.24c6.82,0.15,13.65-0.13,20.47,0.08
			c4.17,0.12,5.51-1.49,5.63-5.64c0.33-10.99-0.53-22.37,2.08-32.86c7.19-28.93,28.27-44.53,55.47-53.12
			c13.01-4.11,26.46-4.09,39.92-3.9C161.56,22.94,171.59,22.82,182.47,22.82z"/>
		<path class="st35" d="M229.8,54.28c0.03-21.55,16.36-37.5,38.35-37.48c21.15,0.03,37.49,16.55,37.49,37.9
			c0,21.42-16.69,37.84-38.22,37.99C245.11,92.84,228.14,73.01,229.8,54.28z"/>
	</g>
</g>
</svg>
