<?xml version="1.0" encoding="utf-8"?>
<!-- Generator: Adobe Illustrator 23.0.0, SVG Export Plug-In . SVG Version: 6.00 Build 0)  -->
<svg version="1.1" xmlns="http://www.w3.org/2000/svg" xmlns:xlink="http://www.w3.org/1999/xlink" x="0px" y="0px"
	 viewBox="0 0 363.77 296.6" style="enable-background:new 0 0 363.77 296.6;" xml:space="preserve">
<style type="text/css">
	.st0{fill:#DFDFDF;}
	.st1{fill:#D6D6DA;}
	.st2{fill:#FFC65E;}
	.st3{fill:#FFDDE7;}
	.st4{fill:none;}
	.st5{fill:url(#SVGID_3_);}
	.st6{fill:#A7A7A7;}
	.st7{fill:#724989;}
	.st8{fill:#FF7AB8;}
	.st9{fill:url(#SVGID_4_);}
	.st10{fill:#894967;}
	.st11{fill:url(#SVGID_5_);}
	.st12{fill:url(#SVGID_6_);}
	.st13{fill:url(#SVGID_7_);}
	.st14{fill:url(#SVGID_8_);}
	.st15{fill:url(#SVGID_9_);}
	.st16{fill:url(#SVGID_10_);}
	.st17{fill:url(#SVGID_11_);}
	.st18{fill:url(#SVGID_12_);}
	.st19{fill:url(#SVGID_13_);}
	.st20{fill:url(#SVGID_14_);}
	.st21{clip-path:url(#SVGID_16_);}
	.st22{fill:url(#SVGID_17_);}
	.st23{fill:url(#SVGID_18_);}
	.st24{fill:url(#SVGID_19_);}
	.st25{fill:url(#SVGID_20_);}
	.st26{fill:url(#SVGID_21_);}
	.st27{fill:url(#SVGID_22_);}
	.st28{fill:url(#SVGID_23_);}
	.st29{fill:url(#SVGID_24_);}
	.st30{fill:url(#SVGID_25_);}
	.st31{fill:url(#SVGID_26_);}
	.st32{fill:url(#SVGID_27_);}
	.st33{fill:url(#SVGID_28_);}
	.st34{fill:#FEFEFD;}
	.st35{fill:#FFFFFF;}
</style>
<g id="Background">
</g>
<g id="Object">
</g>
<g id="Words">
	<g>
		<path class="st35" d="M347.89,34.8c-2.43,0.71-4.84,1.45-7.28,2.13c-35.93,9.97-71.87,19.93-107.8,29.89
			c-0.43,0.12-0.87,0.22-1.4,0.35c-7.69-10.79-15.38-21.58-23.07-32.36C254.86,34.8,301.37,34.8,347.89,34.8z"/>
		<path class="st35" d="M155.39,220.02c-15.58-16.74-31.05-33.36-46.64-50.1c17.14-32.52,34.27-65.03,51.46-97.66
			c20.85,1.06,41.69,2.12,62.69,3.19c-0.18,1.22-0.33,2.32-0.51,3.42c-2.07,12.21-4.15,24.43-6.23,36.64
			c-1.87,10.96-3.75,21.92-5.62,32.87c-1.13,6.67-2.26,13.33-3.37,20c-0.13,0.79-0.45,1.41-1.04,1.99
			c-16.59,16.24-33.16,32.49-49.73,48.74C156.13,219.39,155.81,219.64,155.39,220.02z"/>
		<path class="st35" d="M152.29,71.74c-16.51,30.8-32.9,61.38-49.29,91.97C102.04,163.14,10.46,66.01,8.98,64
			C56.78,66.58,104.41,69.15,152.29,71.74z"/>
		<path class="st35" d="M86.81,286.86c8.31-33.87,16.61-67.74,24.91-101.55c0.12-0.07,0.16-0.1,0.21-0.11
			c0.04-0.01,0.09,0,0.12,0.03c0.14,0.11,0.29,0.21,0.41,0.34c12.41,13.32,24.82,26.64,37.35,40.08
			c-20.95,20.48-41.85,40.91-62.75,61.34C86.98,286.95,86.89,286.91,86.81,286.86z"/>
		<path class="st35" d="M165.28,64.99c11.08-9.99,22.17-19.98,33.36-30.07c7.65,10.82,15.2,21.51,22.95,32.48
			c-18.96-0.71-37.61-1.42-56.25-2.12C165.33,65.18,165.3,65.08,165.28,64.99z"/>
		<path class="st35" d="M67.55,35.08c25.72,9.45,51.44,18.9,77.16,28.35c-0.02,0.06-0.03,0.12-0.05,0.18c-0.75,0-1.5,0.04-2.25-0.01
			c-6.53-0.41-13.05-0.85-19.57-1.26c-5.08-0.32-10.15-0.59-15.23-0.9c-5.12-0.32-10.24-0.67-15.36-0.99
			c-3.81-0.24-7.61-0.48-11.42-0.64c-1.12-0.05-1.77-0.4-2.28-1.47c-3.53-7.37-7.14-14.7-10.72-22.04
			c-0.16-0.32-0.29-0.66-0.43-0.99C67.44,35.24,67.5,35.16,67.55,35.08z"/>
	</g>
</g>
</svg>
