<?xml version="1.0" encoding="utf-8"?>
<!-- Generator: Adobe Illustrator 23.0.0, SVG Export Plug-In . SVG Version: 6.00 Build 0)  -->
<svg version="1.1" xmlns="http://www.w3.org/2000/svg" xmlns:xlink="http://www.w3.org/1999/xlink" x="0px" y="0px"
	 viewBox="0 0 540.77 370.6" style="enable-background:new 0 0 540.77 370.6;" xml:space="preserve">
<style type="text/css">
	.st0{fill:#DFDFDF;}
	.st1{fill:#D6D6DA;}
	.st2{fill:#FFC65E;}
	.st3{fill:#FFDDE7;}
	.st4{fill:none;}
	.st5{fill:url(#SVGID_3_);}
	.st6{fill:#A7A7A7;}
	.st7{fill:#724989;}
	.st8{fill:#FF7AB8;}
	.st9{fill:url(#SVGID_4_);}
	.st10{fill:#894967;}
	.st11{fill:url(#SVGID_5_);}
	.st12{fill:url(#SVGID_6_);}
	.st13{fill:url(#SVGID_7_);}
	.st14{fill:url(#SVGID_8_);}
	.st15{fill:url(#SVGID_9_);}
	.st16{fill:url(#SVGID_10_);}
	.st17{fill:url(#SVGID_11_);}
	.st18{fill:url(#SVGID_12_);}
	.st19{fill:url(#SVGID_13_);}
	.st20{fill:url(#SVGID_14_);}
	.st21{clip-path:url(#SVGID_16_);}
	.st22{fill:url(#SVGID_17_);}
	.st23{fill:url(#SVGID_18_);}
	.st24{fill:url(#SVGID_19_);}
	.st25{fill:url(#SVGID_20_);}
	.st26{fill:url(#SVGID_21_);}
	.st27{fill:url(#SVGID_22_);}
	.st28{fill:url(#SVGID_23_);}
	.st29{fill:url(#SVGID_24_);}
	.st30{fill:url(#SVGID_25_);}
	.st31{fill:url(#SVGID_26_);}
	.st32{fill:url(#SVGID_27_);}
	.st33{fill:url(#SVGID_28_);}
	.st34{fill:#FEFEFD;}
</style>
<g id="Background">
</g>
<g id="Object">
</g>
<g id="Words">
	<g>
		<path class="st34" d="M334.97,254.96c-2.72,12.71-5.45,25.35-8.13,37.99c-5.43,25.56-10.83,51.12-16.25,76.67
			c-0.45,2.12-0.73,4.12-3.87,4.1c-17.83-0.16-35.65-0.14-53.48-0.19c-0.31,0-0.62-0.22-0.96-0.35c-1.06-1.37-0.42-2.85-0.11-4.26
			c10.99-51.77,21.99-103.53,33.02-155.29c0.53-2.48,1.06-4.68-0.79-7.03c-14.77-18.81-26.81-39.32-37.43-60.7
			c-0.33-0.67-0.85-1.25-2.11-3.08c0,9.35,0.08,17.27-0.01,25.18c-0.57,47.79-31.8,89.81-77.48,104.33
			c-66.36,21.08-136.6-25.62-142.72-94.95c-0.45-5.14-0.69-10.31-0.7-15.46c-0.05-45.82-0.03-91.65-0.03-137.47
			c0-1.96,0-3.92,0-6.26c19.08,0,37.66,0,56.35,0c1.49,1.83,0.83,4.08,0.83,6.16c0.04,46.66-0.01,93.31,0.05,139.97
			c0.03,24.93,14.06,45.15,36.27,52.62c34.47,11.59,70.11-13.81,70.26-50.39c0.2-47.16,0.05-94.31,0.05-141.47c0-2.14,0-4.29,0-6.19
			c1.94-1.59,3.85-1.04,5.6-1.05c15.5-0.05,31,0.15,46.49-0.15c4.24-0.08,5.69,1.53,6.81,5.25c11.65,38.42,27.69,74.89,48.8,109.08
			c1.63,2.64,3.37,5.21,5.53,8.54c1.84-5.08,3.23-9.27,4.87-13.37c12.25-30.7,31.48-55.2,62.51-68.71
			c65.33-28.45,143.08,13.44,155.53,83.64c11.23,63.3-28.79,121.96-91.91,133.42c-31.86,5.78-61.87-1.23-89.91-17.13
			C339.91,257.2,338.02,255.45,334.97,254.96z M414.46,106.94c-13.58-0.05-23.67,2.82-32.62,9.25c-10.5,7.54-17.1,18.01-21.95,29.73
			c-6.09,14.73-7.92,30.53-11.6,45.87c-0.57,2.38,0.69,3.34,2.16,4.47c16.25,12.53,34.08,21.15,54.79,23.4
			c32.36,3.52,61.6-20.77,63.4-52.98C470.47,134.17,444.49,106.85,414.46,106.94z"/>
	</g>
</g>
</svg>
